<?xml version="1.0" standalone="no"?>
<!DOCTYPE svg PUBLIC "-//W3C//DTD SVG 20010904//EN"
 "http://www.w3.org/TR/2001/REC-SVG-20010904/DTD/svg10.dtd">
<svg version="1.0" xmlns="http://www.w3.org/2000/svg"
 width="1920.000000pt" height="1920.000000pt" viewBox="0 0 1920.000000 1920.000000"
 preserveAspectRatio="xMidYMid meet">
<metadata>
Created by potrace 1.14, written by Peter Selinger 2001-2017
</metadata>
<g transform="translate(0.000000,1920.000000) scale(0.100000,-0.100000)"
fill="#000000" stroke="none">
<path d="M0 9600 l0 -5400 9600 0 9600 0 0 5400 0 5400 -9600 0 -9600 0 0
-5400z m2343 4479 c42 -82 46 -137 35 -414 -12 -292 -5 -541 17 -640 36 -161
132 -390 176 -418 27 -17 90 2 126 38 28 28 33 40 33 83 0 38 -5 55 -25 76
-27 29 -64 46 -101 46 -24 0 -25 2 -19 43 3 23 19 155 35 292 38 315 67 414
164 549 67 93 213 226 247 226 5 0 9 -402 9 -895 l0 -895 -208 0 -207 0 -19
-67 c-40 -138 -101 -230 -230 -347 l-76 -68 -77 69 c-43 37 -89 81 -103 97
-48 55 -101 152 -127 234 l-25 82 -204 0 -204 0 0 895 c0 524 4 895 9 895 15
0 126 -87 167 -132 87 -94 148 -202 192 -338 17 -53 82 -546 82 -624 0 -11 -9
-16 -29 -16 -34 0 -91 -37 -108 -70 -33 -65 -1 -138 71 -165 76 -29 88 -20
151 108 34 69 68 159 88 232 l32 120 0 465 c0 463 0 465 23 515 26 56 51 87
66 82 6 -2 23 -28 39 -58z m16173 -4654 c1 -93 3 -197 4 -230 1 -33 -1 -77 -5
-99 -6 -28 -4 -41 6 -47 8 -5 10 -9 4 -9 -11 0 -13 -1699 -1 -1718 3 -6 3 -13
-2 -16 -9 -5 -8 -929 2 -944 3 -6 3 -13 -2 -16 -4 -2 -6 -53 -5 -113 2 -59 3
-112 3 -118 0 -5 0 -71 -1 -145 0 -74 0 -155 0 -180 -4 -332 -3 -470 5 -470 5
0 4 -6 -1 -12 -6 -8 -10 -77 -9 -165 1 -84 -2 -153 -6 -153 -4 0 -8 -13 -8
-30 0 -16 -4 -30 -9 -30 -5 0 -12 -13 -16 -30 -4 -16 -13 -30 -21 -30 -8 0
-14 -7 -14 -16 0 -10 -6 -14 -15 -10 -8 3 -15 1 -15 -4 0 -6 -10 -10 -23 -10
-13 0 -27 -4 -33 -10 -12 -12 -184 -29 -190 -18 -3 5 -10 6 -15 2 -17 -10 -83
-11 -96 -1 -9 6 -13 6 -13 -1 0 -7 -18 -11 -42 -11 -53 1 -216 -10 -243 -16
-11 -2 -54 -7 -95 -10 -41 -4 -102 -10 -135 -15 -54 -8 -221 -18 -590 -35 -66
-4 -151 -8 -190 -10 -257 -16 -436 -27 -470 -30 -309 -28 -836 -34 -1715 -21
-785 11 -1790 13 -1790 3 0 -4 -5 -5 -11 -1 -11 6 -115 6 -196 0 -18 -1 -33 3
-33 8 0 7 -3 8 -8 1 -4 -6 -113 -10 -289 -10 -156 0 -283 -4 -283 -8 0 -4 -6
-4 -14 0 -8 4 -99 6 -203 3 -103 -3 -194 -1 -200 4 -8 5 -13 4 -13 -3 0 -7 -5
-9 -10 -6 -6 4 -81 6 -168 5 -86 0 -251 -1 -367 -1 -115 0 -318 0 -450 0 -132
0 -269 0 -305 0 -36 0 -270 0 -520 0 -250 1 -581 1 -735 1 -254 1 -750 7 -750
11 0 0 -89 2 -197 5 -108 2 -200 4 -205 5 -4 1 -12 1 -18 0 -5 -1 -59 -2 -120
-1 -60 0 -483 3 -940 5 -456 2 -915 9 -1020 14 -104 5 -368 6 -585 3 -217 -4
-438 -6 -490 -6 -239 2 -885 15 -970 19 -52 3 -219 7 -370 10 -151 3 -358 10
-460 15 -204 10 -475 18 -940 25 -168 3 -312 8 -322 11 -9 2 -49 6 -90 9 -40
2 -118 6 -173 10 -93 6 -247 15 -270 16 -5 0 -60 0 -122 -1 -62 -1 -117 1
-123 5 -6 3 -21 8 -34 11 -43 8 -91 32 -113 58 -13 14 -23 27 -22 29 3 10 -15
57 -23 57 -5 0 -6 9 -3 20 4 12 2 26 -3 33 -5 7 -10 109 -10 229 -1 119 -2
220 -3 225 -1 4 0 13 1 18 5 25 4 2083 -1 2079 -8 -4 -3 35 6 59 4 10 3 17 -5
17 -6 0 -8 5 -3 13 11 17 10 371 -1 378 -5 4 -5 19 0 35 5 16 7 49 4 74 -3 25
-3 56 1 70 3 14 5 50 3 80 -4 70 -4 -9 -2 698 l1 612 8961 -2 8961 -3 1 -170z"/>
<path d="M1680 13246 l0 -456 33 0 c29 0 35 5 50 39 17 37 79 103 107 113 10
3 7 51 -14 228 -15 124 -34 250 -42 280 -17 58 -99 223 -121 242 -11 8 -13
-73 -13 -446z"/>
<path d="M2898 13683 c-40 -48 -100 -170 -123 -251 -4 -12 -19 -126 -34 -252
l-27 -229 42 -31 c27 -19 51 -48 66 -80 21 -46 25 -49 61 -50 l37 0 0 455 c0
250 -2 455 -3 455 -2 0 -11 -8 -19 -17z"/>
<path d="M2260 12798 c-19 -51 -48 -122 -67 -157 -18 -35 -33 -68 -33 -72 0
-5 31 -29 69 -55 l69 -46 71 48 c39 26 71 48 71 50 0 2 -17 36 -39 77 -21 40
-51 112 -67 160 -15 48 -31 87 -35 87 -3 0 -21 -42 -39 -92z"/>
<path d="M1680 12480 l0 -190 139 0 138 0 6 63 c3 34 9 76 12 92 6 29 5 30
-52 47 -73 21 -135 73 -159 133 -17 40 -22 45 -51 45 l-33 0 0 -190z"/>
<path d="M2824 12613 c-23 -46 -40 -65 -83 -90 -29 -17 -70 -35 -92 -38 -31
-5 -39 -11 -35 -23 5 -15 25 -146 26 -164 0 -5 63 -8 140 -8 l140 0 -2 188 -3
187 -31 3 c-28 3 -33 -2 -60 -55z"/>
<path d="M2101 12432 c-5 -10 -13 -46 -17 -80 l-7 -62 77 0 c75 0 76 0 76 25
0 50 -40 104 -92 124 -23 9 -29 7 -37 -7z"/>
<path d="M2445 12434 c-37 -19 -72 -68 -81 -112 l-6 -32 76 0 76 0 -1 53 c-1
60 -10 99 -24 103 -6 1 -24 -4 -40 -12z"/>
<path d="M2107 12164 c-21 -21 96 -255 121 -240 6 3 7 83 2 234 0 12 -110 18
-123 6z"/>
<path d="M2360 12043 l0 -127 31 30 c35 33 84 131 94 187 l7 37 -66 0 -66 0 0
-127z"/>
</g>
</svg>
